<svg width="32" height="32" viewBox="0 0 32 32" fill="none" xmlns="http://www.w3.org/2000/svg">
  <rect width="32" height="32" rx="6" fill="#2563EB"/>
  <path d="M8 10C8 8.89543 8.89543 8 10 8H14C15.1046 8 16 8.89543 16 10V14C16 15.1046 15.1046 16 14 16H10C8.89543 16 8 15.1046 8 14V10Z" fill="white"/>
  <path d="M18 10C18 8.89543 18.8954 8 20 8H22C23.1046 8 24 8.89543 24 10V22C24 23.1046 23.1046 24 22 24H20C18.8954 24 18 23.1046 18 22V10Z" fill="white"/>
  <path d="M8 18C8 16.8954 8.89543 16 10 16H14C15.1046 16 16 16.8954 16 18V22C16 23.1046 15.1046 24 14 24H10C8.89543 24 8 23.1046 8 22V18Z" fill="white"/>
</svg>
